<svg version="1.1" id="a-icon_deezer" xmlns="http://www.w3.org/2000/svg" xmlns:xlink="http://www.w3.org/1999/xlink" x="0px"
	 y="0px" viewBox="0 0 100 100" style="enable-background:new 0 0 100 100;" xml:space="preserve">
<style type="text/css">
	.st0{fill:#7F7F7F;}
</style>
<g id="black">
	<polygon points="23,92.5 23,89.6 39.6,89.6 39.6,95.4 23,95.4 	"/>
	<polygon points="23,80.1 23,77.2 39.6,77.2 39.6,83 23,83 	"/>
	<polygon points="23,68.2 23,65.3 39.6,65.3 39.6,71.1 23,71.1 	"/>
	<polygon points="79.9,92.5 79.9,89.6 96.4,89.6 96.4,95.4 79.9,95.4 	"/>
	<polygon points="79.9,80.1 79.9,77.2 96.4,77.2 96.4,83 79.9,83 	"/>
	<polygon points="79.9,68.2 79.9,65.3 96.4,65.3 96.4,71.1 79.9,71.1 	"/>
	<polygon points="60.9,92.5 60.9,89.6 77.5,89.6 77.5,95.4 60.9,95.4 60.9,92.5 	"/>
	<polygon points="60.9,80.1 60.9,77.2 77.5,77.2 77.5,83 60.9,83 60.9,80.1 	"/>
	<polygon points="60.9,68.2 60.9,65.3 77.5,65.3 77.5,71.1 60.9,71.1 60.9,68.2 	"/>
	<polygon points="41.9,92.5 41.9,89.6 58.5,89.6 58.5,95.4 41.9,95.4 	"/>
	<polygon points="41.9,80.1 41.9,77.2 58.5,77.2 58.5,83 41.9,83 	"/>
	<polygon points="41.9,68.2 41.9,65.3 58.5,65.3 58.5,71.1 41.9,71.1 	"/>
	<polygon points="4,92.5 4,89.6 20.6,89.6 20.6,95.4 4,95.4 	"/>
	<polygon points="4,80.1 4,77.2 20.6,77.2 20.6,83 4,83 	"/>
	<polygon points="4,68.2 4,65.3 20.6,65.3 20.6,71.1 4,71.1 	"/>
</g>
<g id="grey">
	<polygon class="st0" points="79.7,56.2 79.7,53.3 96.6,53.3 96.6,59.1 79.7,59.1 79.7,56.2 	"/>
	<polygon class="st0" points="79.7,44.2 79.7,41.3 96.6,41.3 96.6,47.1 79.7,47.1 79.7,44.2 	"/>
	<polygon class="st0" points="79.7,32.1 79.7,29.2 96.6,29.2 96.6,35 79.7,35 79.7,32.1 	"/>
	<polygon class="st0" points="79.7,19.8 79.7,16.9 96.6,16.9 96.6,23 79.7,23 79.7,19.8 	"/>
	<polygon class="st0" points="79.7,7.6 79.7,4.4 96.6,4.4 96.6,10.8 79.7,10.8 79.7,7.6 	"/>
	<polygon class="st0" points="41.7,56.2 41.7,53.3 58.7,53.3 58.7,59.1 41.7,59.1 	"/>
	<polygon class="st0" points="41.7,44.2 41.7,41.3 58.7,41.3 58.7,47.1 41.7,47.1 	"/>
	<polygon class="st0" points="41.7,32.1 41.7,29.2 58.7,29.2 58.7,35 41.7,35 	"/>
	<polygon class="st0" points="41.7,19.8 41.7,16.9 58.7,16.9 58.7,23 41.7,23 	"/>
	<polygon class="st0" points="60.7,56.2 60.7,53.3 77.7,53.3 77.7,59.1 60.7,59.1 60.7,56.2 	"/>
	<polygon class="st0" points="60.7,44.2 60.7,41.3 77.7,41.3 77.7,47.1 60.7,47.1 60.7,44.2 	"/>
	<polygon class="st0" points="4,56.2 4,53.3 20.6,53.3 20.6,59.1 4,59.1 	"/>
	<polygon class="st0" points="4,44.2 4,41.3 20.6,41.3 20.6,47.1 4,47.1 	"/>
</g>
</svg>
