<svg version="1.1" id="a-icon_spotify" xmlns="http://www.w3.org/2000/svg" xmlns:xlink="http://www.w3.org/1999/xlink" x="0px"
	 y="0px" viewBox="0 0 100 100" style="enable-background:new 0 0 100 100;" xml:space="preserve">
<path id="a-element" d="M49.9,2.4C23.6,2.4,2.3,23.7,2.3,50s21.3,47.6,47.6,47.6S97.5,76.3,97.5,50C97.5,23.7,76.2,2.4,49.9,2.4z
	 M71.7,71c-0.9,1.4-2.7,1.8-4.1,1c-11.2-6.8-25.2-8.4-41.8-4.6c-1.6,0.4-3.2-0.6-3.6-2.2c-0.4-1.6,0.6-3.2,2.2-3.6
	c18.1-4.1,33.7-2.4,46.2,5.3C72.1,67.8,72.6,69.6,71.7,71z M77.5,58.1L77.5,58.1c-1.1,1.7-3.4,2.3-5.1,1.2
	C59.7,51.5,40.2,49.2,25,53.8c-2,0.6-4-0.5-4.6-2.5c-0.6-2,0.5-4,2.5-4.6C40.1,41.4,61.6,44,76.3,53C78.1,54.1,78.6,56.3,77.5,58.1z
	 M78,44.6c-15.3-9.1-40.6-9.9-55.3-5.5c-2.4,0.7-4.8-0.6-5.5-3c-0.7-2.4,0.6-4.8,3-5.6c16.8-5.1,44.8-4.1,62.4,6.4
	c2.1,1.3,2.8,4,1.6,6.1C82.9,45.2,80.2,45.9,78,44.6z"/>
</svg>
