<svg version="1.1" id="Layer_1" xmlns="http://www.w3.org/2000/svg" xmlns:xlink="http://www.w3.org/1999/xlink" x="0px" y="0px"
	 viewBox="0 0 100 100" style="enable-background:new 0 0 100 100;" xml:space="preserve">
<path class="st0" d="M50,2C23.5,2,2,23.5,2,50s21.5,48,48,48s48-21.5,48-48S76.5,2,50,2z M36.4,39.6C32,44.1,27.5,48.6,23,53
	c-4.5-4.5-9-9-13.5-13.4c0.2-0.4,0.7-0.7,1-1.1c4.1-4.2,8.3-8.3,12.4-12.4h0.2c1.3,1.5,2.7,2.8,4.1,4.2l9.2,9.2V39.6z M62.8,67.2
	c-3.2,3.2-6.4,6.4-9.7,9.6c-1,1-2,2.1-3.1,3.1c-1.5-1.4-2.9-2.9-4.4-4.4c-3-3-6-6-9-9c0-0.1,0.1-0.2,0.1-0.3
	c4.4-4.4,8.8-8.8,13.3-13.3l0.2,0.1c4.4,4.5,8.9,8.9,13.3,13.3C63.3,66.8,63,67,62.8,67.2z M63,40.1c-4.3,4.3-8.6,8.6-13,12.9
	c-4.5-4.5-9-9-13.5-13.4c4.4-4.6,9-9,13.4-13.6h0.2c0.1,0.2,0.3,0.4,0.4,0.5c4.3,4.3,8.6,8.6,13,12.9C63.4,39.7,63.1,39.9,63,40.1z
	 M76.9,53L64.1,40.2c-0.2-0.2-0.5-0.4-0.6-0.7c2.3-2.2,4.5-4.5,6.8-6.7c2.2-2.2,4.5-4.4,6.7-6.7h0.2c0.8,1,1.8,1.9,2.7,2.8
	c3.4,3.4,6.8,6.8,10.1,10.1c0.2,0.2,0.4,0.4,0.5,0.6C85.9,44,81.5,48.6,76.9,53z"/>
</svg>
