<svg version="1.1" id="a-icon_apple" xmlns="http://www.w3.org/2000/svg" xmlns:xlink="http://www.w3.org/1999/xlink" x="0px"
	 y="0px" viewBox="0 0 100 100" style="enable-background:new 0 0 100 100;" xml:space="preserve">
<path id="icon-element_1_" d="M74.7,52.8L74.7,52.8c-0.1-11.4,9.4-17,9.8-17.2c-5.3-7.8-13.6-8.9-16.6-9c-7-0.7-13.8,4.1-17.3,4.1
	c-3.6,0-9.1-4-14.9-3.9C28,27,20.9,31.3,16.9,38.2c-8,13.8-2,34.4,5.7,45.6C26.5,89.3,31,95.5,37,95.2c5.7-0.2,7.9-3.7,14.8-3.7
	c6.9,0,8.9,3.7,14.9,3.6C72.9,95,76.8,89.5,80.6,84c4.4-6.4,6.2-12.5,6.3-12.9C86.7,71.1,74.8,66.5,74.7,52.8z"/>
<path id="icon-element" d="M63.3,19.2L63.3,19.2c3.2-3.8,5.3-9.1,4.7-14.4c-4.6,0.2-10.1,3-13.3,6.9c-2.9,3.4-5.5,8.8-4.8,14
	C55,26,60.1,23,63.3,19.2z"/>
</svg>
